<mxfile host="app.diagrams.net" modified="2022-07-23T23:12:03.397Z" agent="5.0 (X11; Linux x86_64) AppleWebKit/537.36 (KHTML, like Gecko) Chrome/102.0.0.0 Safari/537.36" etag="sEZ26eePvTBXK-ZcZskJ" version="20.0.4" type="github">
  <diagram id="XfL6A7NOKHeL8gokubL_" name="Page-1">
    <mxGraphModel dx="1937" dy="743" grid="1" gridSize="10" guides="1" tooltips="1" connect="1" arrows="1" fold="1" page="1" pageScale="1" pageWidth="827" pageHeight="1169" math="0" shadow="0">
      <root>
        <mxCell id="0" />
        <mxCell id="1" parent="0" />
        <mxCell id="dqapPqwXwCKbUHnhum-Q-1" value="&lt;p style=&quot;margin:0px;margin-top:4px;text-align:center;&quot;&gt;&lt;/p&gt;&lt;div style=&quot;text-align: center; height: 2px;&quot;&gt;&lt;b&gt;Car&lt;/b&gt;&lt;/div&gt;" style="verticalAlign=top;align=left;overflow=fill;fontSize=12;fontFamily=Helvetica;html=1;" vertex="1" parent="1">
          <mxGeometry x="200" y="300" width="140" height="50" as="geometry" />
        </mxCell>
        <mxCell id="dqapPqwXwCKbUHnhum-Q-2" value="&lt;p style=&quot;margin:0px;margin-top:4px;text-align:center;&quot;&gt;&lt;i&gt;&amp;lt;&amp;lt;abstract&amp;gt;&amp;gt;&lt;/i&gt;&lt;br&gt;&lt;b&gt;Vehicle&lt;/b&gt;&lt;/p&gt;&lt;hr size=&quot;1&quot;&gt;&lt;p style=&quot;margin:0px;margin-left:4px;&quot;&gt;&lt;/p&gt;&lt;p style=&quot;margin:0px;margin-left:4px;&quot;&gt;&lt;br&gt;&lt;/p&gt;" style="verticalAlign=top;align=left;overflow=fill;fontSize=12;fontFamily=Helvetica;html=1;" vertex="1" parent="1">
          <mxGeometry x="300" y="170" width="190" height="40" as="geometry" />
        </mxCell>
        <mxCell id="dqapPqwXwCKbUHnhum-Q-3" value="" style="endArrow=block;dashed=1;endFill=0;endSize=12;html=1;rounded=0;exitX=0.5;exitY=0;exitDx=0;exitDy=0;entryX=0.374;entryY=1.025;entryDx=0;entryDy=0;entryPerimeter=0;" edge="1" parent="1" source="dqapPqwXwCKbUHnhum-Q-1" target="dqapPqwXwCKbUHnhum-Q-2">
          <mxGeometry width="160" relative="1" as="geometry">
            <mxPoint x="340" y="380" as="sourcePoint" />
            <mxPoint x="500" y="380" as="targetPoint" />
            <Array as="points">
              <mxPoint x="270" y="260" />
              <mxPoint x="371" y="260" />
            </Array>
          </mxGeometry>
        </mxCell>
        <mxCell id="dqapPqwXwCKbUHnhum-Q-4" value="&lt;p style=&quot;margin:0px;margin-top:4px;text-align:center;&quot;&gt;&lt;/p&gt;&lt;div style=&quot;text-align: center; height: 2px;&quot;&gt;&lt;b&gt;Bicycle&lt;/b&gt;&lt;/div&gt;" style="verticalAlign=top;align=left;overflow=fill;fontSize=12;fontFamily=Helvetica;html=1;" vertex="1" parent="1">
          <mxGeometry x="460" y="300" width="140" height="50" as="geometry" />
        </mxCell>
        <mxCell id="dqapPqwXwCKbUHnhum-Q-6" value="" style="endArrow=block;dashed=1;endFill=0;endSize=12;html=1;rounded=0;strokeWidth=1;exitX=0.5;exitY=0;exitDx=0;exitDy=0;entryX=0.642;entryY=0.975;entryDx=0;entryDy=0;entryPerimeter=0;" edge="1" parent="1" source="dqapPqwXwCKbUHnhum-Q-4" target="dqapPqwXwCKbUHnhum-Q-2">
          <mxGeometry width="160" relative="1" as="geometry">
            <mxPoint x="340" y="380" as="sourcePoint" />
            <mxPoint x="500" y="380" as="targetPoint" />
            <Array as="points">
              <mxPoint x="530" y="260" />
              <mxPoint x="422" y="260" />
            </Array>
          </mxGeometry>
        </mxCell>
        <mxCell id="dqapPqwXwCKbUHnhum-Q-8" value="&lt;p style=&quot;margin:0px;margin-top:4px;text-align:center;&quot;&gt;&lt;b&gt;Engine&lt;/b&gt;&lt;/p&gt;&lt;hr size=&quot;1&quot;&gt;&lt;div style=&quot;height:2px;&quot;&gt;&lt;/div&gt;&lt;hr size=&quot;1&quot;&gt;&lt;div style=&quot;height:2px;&quot;&gt;&lt;/div&gt;" style="verticalAlign=top;align=left;overflow=fill;fontSize=12;fontFamily=Helvetica;html=1;" vertex="1" parent="1">
          <mxGeometry x="-60" y="360" width="140" height="60" as="geometry" />
        </mxCell>
        <mxCell id="dqapPqwXwCKbUHnhum-Q-9" value="&lt;p style=&quot;margin:0px;margin-top:4px;text-align:center;&quot;&gt;&lt;b&gt;Wheel&lt;/b&gt;&lt;/p&gt;&lt;hr size=&quot;1&quot;&gt;&lt;div style=&quot;height:2px;&quot;&gt;&lt;/div&gt;&lt;hr size=&quot;1&quot;&gt;&lt;div style=&quot;height:2px;&quot;&gt;&lt;/div&gt;" style="verticalAlign=top;align=left;overflow=fill;fontSize=12;fontFamily=Helvetica;html=1;" vertex="1" parent="1">
          <mxGeometry x="-60" y="260" width="140" height="60" as="geometry" />
        </mxCell>
        <mxCell id="dqapPqwXwCKbUHnhum-Q-10" value="&lt;p style=&quot;margin:0px;margin-top:4px;text-align:center;&quot;&gt;&lt;b&gt;Student&lt;/b&gt;&lt;/p&gt;&lt;hr size=&quot;1&quot;&gt;&lt;div style=&quot;height:2px;&quot;&gt;&lt;/div&gt;&lt;hr size=&quot;1&quot;&gt;&lt;div style=&quot;height:2px;&quot;&gt;&lt;/div&gt;" style="verticalAlign=top;align=left;overflow=fill;fontSize=12;fontFamily=Helvetica;html=1;" vertex="1" parent="1">
          <mxGeometry x="460" y="400" width="140" height="60" as="geometry" />
        </mxCell>
        <mxCell id="dqapPqwXwCKbUHnhum-Q-11" value="Use" style="endArrow=open;endSize=12;dashed=1;html=1;rounded=0;strokeWidth=1;exitX=0.5;exitY=0;exitDx=0;exitDy=0;entryX=0.5;entryY=1;entryDx=0;entryDy=0;" edge="1" parent="1" source="dqapPqwXwCKbUHnhum-Q-10" target="dqapPqwXwCKbUHnhum-Q-4">
          <mxGeometry width="160" relative="1" as="geometry">
            <mxPoint x="340" y="380" as="sourcePoint" />
            <mxPoint x="500" y="380" as="targetPoint" />
          </mxGeometry>
        </mxCell>
        <mxCell id="dqapPqwXwCKbUHnhum-Q-12" value="&lt;p style=&quot;margin:0px;margin-top:4px;text-align:center;&quot;&gt;&lt;b&gt;Class&lt;/b&gt;&lt;/p&gt;&lt;hr size=&quot;1&quot;/&gt;&lt;div style=&quot;height:2px;&quot;&gt;&lt;/div&gt;&lt;hr size=&quot;1&quot;/&gt;&lt;div style=&quot;height:2px;&quot;&gt;&lt;/div&gt;" style="verticalAlign=top;align=left;overflow=fill;fontSize=12;fontFamily=Helvetica;html=1;" vertex="1" parent="1">
          <mxGeometry x="670" y="400" width="140" height="60" as="geometry" />
        </mxCell>
        <mxCell id="dqapPqwXwCKbUHnhum-Q-13" value="" style="endArrow=diamondThin;endFill=0;endSize=24;html=1;rounded=0;dashed=1;strokeWidth=1;exitX=1;exitY=0.5;exitDx=0;exitDy=0;entryX=0;entryY=0.5;entryDx=0;entryDy=0;" edge="1" parent="1" source="dqapPqwXwCKbUHnhum-Q-10" target="dqapPqwXwCKbUHnhum-Q-12">
          <mxGeometry width="160" relative="1" as="geometry">
            <mxPoint x="610" y="500" as="sourcePoint" />
            <mxPoint x="770" y="500" as="targetPoint" />
          </mxGeometry>
        </mxCell>
        <mxCell id="dqapPqwXwCKbUHnhum-Q-17" style="edgeStyle=orthogonalEdgeStyle;rounded=0;orthogonalLoop=1;jettySize=auto;html=1;exitX=0.5;exitY=0;exitDx=0;exitDy=0;entryX=0.5;entryY=1;entryDx=0;entryDy=0;endArrow=none;endFill=0;strokeWidth=1;" edge="1" parent="1" source="dqapPqwXwCKbUHnhum-Q-16" target="dqapPqwXwCKbUHnhum-Q-10">
          <mxGeometry relative="1" as="geometry" />
        </mxCell>
        <mxCell id="dqapPqwXwCKbUHnhum-Q-16" value="&lt;p style=&quot;margin:0px;margin-top:4px;text-align:center;&quot;&gt;&lt;b&gt;ID&lt;/b&gt;&lt;/p&gt;&lt;hr size=&quot;1&quot;&gt;&lt;div style=&quot;height:2px;&quot;&gt;&lt;/div&gt;" style="verticalAlign=top;align=left;overflow=fill;fontSize=12;fontFamily=Helvetica;html=1;" vertex="1" parent="1">
          <mxGeometry x="460" y="520" width="140" height="60" as="geometry" />
        </mxCell>
        <mxCell id="dqapPqwXwCKbUHnhum-Q-18" value="" style="endArrow=diamondThin;endFill=1;endSize=24;html=1;rounded=0;strokeWidth=1;exitX=1;exitY=0.5;exitDx=0;exitDy=0;" edge="1" parent="1" source="dqapPqwXwCKbUHnhum-Q-9">
          <mxGeometry width="160" relative="1" as="geometry">
            <mxPoint x="340" y="380" as="sourcePoint" />
            <mxPoint x="200" y="320" as="targetPoint" />
            <Array as="points">
              <mxPoint x="140" y="290" />
              <mxPoint x="140" y="320" />
            </Array>
          </mxGeometry>
        </mxCell>
        <mxCell id="dqapPqwXwCKbUHnhum-Q-19" value="" style="endArrow=diamondThin;endFill=1;endSize=24;html=1;rounded=0;strokeWidth=1;exitX=1;exitY=0.25;exitDx=0;exitDy=0;" edge="1" parent="1" source="dqapPqwXwCKbUHnhum-Q-8">
          <mxGeometry width="160" relative="1" as="geometry">
            <mxPoint x="340" y="380" as="sourcePoint" />
            <mxPoint x="200" y="340" as="targetPoint" />
            <Array as="points">
              <mxPoint x="140" y="375" />
              <mxPoint x="140" y="340" />
            </Array>
          </mxGeometry>
        </mxCell>
        <mxCell id="dqapPqwXwCKbUHnhum-Q-20" value="&lt;p style=&quot;margin:0px;margin-top:4px;text-align:center;&quot;&gt;&lt;b&gt;SUV&lt;/b&gt;&lt;/p&gt;&lt;hr size=&quot;1&quot;&gt;&lt;div style=&quot;height:2px;&quot;&gt;&lt;/div&gt;&lt;hr size=&quot;1&quot;&gt;&lt;div style=&quot;height:2px;&quot;&gt;&lt;/div&gt;" style="verticalAlign=top;align=left;overflow=fill;fontSize=12;fontFamily=Helvetica;html=1;" vertex="1" parent="1">
          <mxGeometry x="200" y="470" width="140" height="60" as="geometry" />
        </mxCell>
        <mxCell id="dqapPqwXwCKbUHnhum-Q-21" value="Extends" style="endArrow=block;endSize=16;endFill=0;html=1;rounded=0;strokeWidth=1;exitX=0.5;exitY=0;exitDx=0;exitDy=0;" edge="1" parent="1" source="dqapPqwXwCKbUHnhum-Q-20" target="dqapPqwXwCKbUHnhum-Q-1">
          <mxGeometry width="160" relative="1" as="geometry">
            <mxPoint x="340" y="380" as="sourcePoint" />
            <mxPoint x="500" y="380" as="targetPoint" />
          </mxGeometry>
        </mxCell>
        <mxCell id="dqapPqwXwCKbUHnhum-Q-22" value="Generalization" style="text;html=1;align=center;verticalAlign=middle;resizable=0;points=[];autosize=1;strokeColor=none;fillColor=none;" vertex="1" parent="1">
          <mxGeometry x="-680" y="80" width="100" height="30" as="geometry" />
        </mxCell>
        <mxCell id="dqapPqwXwCKbUHnhum-Q-26" style="edgeStyle=orthogonalEdgeStyle;rounded=0;orthogonalLoop=1;jettySize=auto;html=1;exitX=1;exitY=0.5;exitDx=0;exitDy=0;endArrow=block;endFill=0;strokeWidth=1;entryX=0;entryY=0.5;entryDx=0;entryDy=0;jumpSize=6;shadow=0;sketch=0;endSize=12;" edge="1" parent="1" source="dqapPqwXwCKbUHnhum-Q-24" target="dqapPqwXwCKbUHnhum-Q-25">
          <mxGeometry relative="1" as="geometry">
            <mxPoint x="-670" y="120" as="targetPoint" />
          </mxGeometry>
        </mxCell>
        <mxCell id="dqapPqwXwCKbUHnhum-Q-24" value="A" style="whiteSpace=wrap;html=1;" vertex="1" parent="1">
          <mxGeometry x="-800" y="90" width="120" height="60" as="geometry" />
        </mxCell>
        <mxCell id="dqapPqwXwCKbUHnhum-Q-25" value="B" style="whiteSpace=wrap;html=1;" vertex="1" parent="1">
          <mxGeometry x="-570" y="90" width="120" height="60" as="geometry" />
        </mxCell>
        <mxCell id="dqapPqwXwCKbUHnhum-Q-27" value="Realize" style="text;html=1;align=center;verticalAlign=middle;resizable=0;points=[];autosize=1;strokeColor=none;fillColor=none;" vertex="1" parent="1">
          <mxGeometry x="-660" y="210" width="60" height="30" as="geometry" />
        </mxCell>
        <mxCell id="dqapPqwXwCKbUHnhum-Q-28" style="edgeStyle=orthogonalEdgeStyle;rounded=0;orthogonalLoop=1;jettySize=auto;html=1;exitX=1;exitY=0.5;exitDx=0;exitDy=0;endArrow=block;endFill=0;strokeWidth=1;entryX=0;entryY=0.5;entryDx=0;entryDy=0;jumpSize=6;shadow=0;sketch=0;endSize=12;dashed=1;" edge="1" parent="1" source="dqapPqwXwCKbUHnhum-Q-29" target="dqapPqwXwCKbUHnhum-Q-30">
          <mxGeometry relative="1" as="geometry">
            <mxPoint x="-670" y="250" as="targetPoint" />
          </mxGeometry>
        </mxCell>
        <mxCell id="dqapPqwXwCKbUHnhum-Q-29" value="A" style="whiteSpace=wrap;html=1;" vertex="1" parent="1">
          <mxGeometry x="-800" y="220" width="120" height="60" as="geometry" />
        </mxCell>
        <mxCell id="dqapPqwXwCKbUHnhum-Q-30" value="&amp;lt;&amp;lt;A&amp;gt;&amp;gt;" style="whiteSpace=wrap;html=1;" vertex="1" parent="1">
          <mxGeometry x="-570" y="220" width="120" height="60" as="geometry" />
        </mxCell>
        <mxCell id="dqapPqwXwCKbUHnhum-Q-31" value="Aggregation" style="text;html=1;align=center;verticalAlign=middle;resizable=0;points=[];autosize=1;strokeColor=none;fillColor=none;" vertex="1" parent="1">
          <mxGeometry x="-675" y="330" width="90" height="30" as="geometry" />
        </mxCell>
        <mxCell id="dqapPqwXwCKbUHnhum-Q-32" style="edgeStyle=orthogonalEdgeStyle;rounded=0;orthogonalLoop=1;jettySize=auto;html=1;exitX=1;exitY=0.5;exitDx=0;exitDy=0;endArrow=diamondThin;endFill=0;strokeWidth=1;entryX=0;entryY=0.5;entryDx=0;entryDy=0;jumpSize=6;shadow=0;sketch=0;endSize=12;" edge="1" parent="1" source="dqapPqwXwCKbUHnhum-Q-33" target="dqapPqwXwCKbUHnhum-Q-34">
          <mxGeometry relative="1" as="geometry">
            <mxPoint x="-670" y="370" as="targetPoint" />
          </mxGeometry>
        </mxCell>
        <mxCell id="dqapPqwXwCKbUHnhum-Q-33" value="A" style="whiteSpace=wrap;html=1;" vertex="1" parent="1">
          <mxGeometry x="-800" y="340" width="120" height="60" as="geometry" />
        </mxCell>
        <mxCell id="dqapPqwXwCKbUHnhum-Q-34" value="B" style="whiteSpace=wrap;html=1;" vertex="1" parent="1">
          <mxGeometry x="-570" y="340" width="120" height="60" as="geometry" />
        </mxCell>
        <mxCell id="dqapPqwXwCKbUHnhum-Q-35" value="Composition" style="text;html=1;align=center;verticalAlign=middle;resizable=0;points=[];autosize=1;strokeColor=none;fillColor=none;" vertex="1" parent="1">
          <mxGeometry x="-675" y="470" width="90" height="30" as="geometry" />
        </mxCell>
        <mxCell id="dqapPqwXwCKbUHnhum-Q-36" style="edgeStyle=orthogonalEdgeStyle;rounded=0;orthogonalLoop=1;jettySize=auto;html=1;exitX=1;exitY=0.5;exitDx=0;exitDy=0;endArrow=diamondThin;endFill=1;strokeWidth=1;entryX=0;entryY=0.5;entryDx=0;entryDy=0;jumpSize=6;shadow=0;sketch=0;endSize=12;" edge="1" parent="1" source="dqapPqwXwCKbUHnhum-Q-37" target="dqapPqwXwCKbUHnhum-Q-38">
          <mxGeometry relative="1" as="geometry">
            <mxPoint x="-670" y="510" as="targetPoint" />
          </mxGeometry>
        </mxCell>
        <mxCell id="dqapPqwXwCKbUHnhum-Q-37" value="A" style="whiteSpace=wrap;html=1;" vertex="1" parent="1">
          <mxGeometry x="-800" y="480" width="120" height="60" as="geometry" />
        </mxCell>
        <mxCell id="dqapPqwXwCKbUHnhum-Q-38" value="B" style="whiteSpace=wrap;html=1;" vertex="1" parent="1">
          <mxGeometry x="-570" y="480" width="120" height="60" as="geometry" />
        </mxCell>
        <mxCell id="dqapPqwXwCKbUHnhum-Q-39" value="Association" style="text;html=1;align=center;verticalAlign=middle;resizable=0;points=[];autosize=1;strokeColor=none;fillColor=none;" vertex="1" parent="1">
          <mxGeometry x="-670" y="610" width="80" height="30" as="geometry" />
        </mxCell>
        <mxCell id="dqapPqwXwCKbUHnhum-Q-40" style="edgeStyle=orthogonalEdgeStyle;rounded=0;orthogonalLoop=1;jettySize=auto;html=1;exitX=1;exitY=0.5;exitDx=0;exitDy=0;endArrow=open;endFill=0;strokeWidth=1;entryX=0;entryY=0.5;entryDx=0;entryDy=0;jumpSize=6;shadow=0;sketch=0;endSize=12;" edge="1" parent="1" source="dqapPqwXwCKbUHnhum-Q-41" target="dqapPqwXwCKbUHnhum-Q-42">
          <mxGeometry relative="1" as="geometry">
            <mxPoint x="-670" y="650" as="targetPoint" />
          </mxGeometry>
        </mxCell>
        <mxCell id="dqapPqwXwCKbUHnhum-Q-41" value="A" style="whiteSpace=wrap;html=1;" vertex="1" parent="1">
          <mxGeometry x="-800" y="620" width="120" height="60" as="geometry" />
        </mxCell>
        <mxCell id="dqapPqwXwCKbUHnhum-Q-42" value="B" style="whiteSpace=wrap;html=1;" vertex="1" parent="1">
          <mxGeometry x="-570" y="620" width="120" height="60" as="geometry" />
        </mxCell>
        <mxCell id="dqapPqwXwCKbUHnhum-Q-43" value="Dependency" style="text;html=1;align=center;verticalAlign=middle;resizable=0;points=[];autosize=1;strokeColor=none;fillColor=none;" vertex="1" parent="1">
          <mxGeometry x="-675" y="730" width="90" height="30" as="geometry" />
        </mxCell>
        <mxCell id="dqapPqwXwCKbUHnhum-Q-44" style="edgeStyle=orthogonalEdgeStyle;rounded=0;orthogonalLoop=1;jettySize=auto;html=1;exitX=1;exitY=0.5;exitDx=0;exitDy=0;endArrow=open;endFill=0;strokeWidth=1;entryX=0;entryY=0.5;entryDx=0;entryDy=0;jumpSize=6;shadow=0;sketch=0;endSize=12;dashed=1;" edge="1" parent="1" source="dqapPqwXwCKbUHnhum-Q-45" target="dqapPqwXwCKbUHnhum-Q-46">
          <mxGeometry relative="1" as="geometry">
            <mxPoint x="-670" y="770" as="targetPoint" />
          </mxGeometry>
        </mxCell>
        <mxCell id="dqapPqwXwCKbUHnhum-Q-45" value="A" style="whiteSpace=wrap;html=1;" vertex="1" parent="1">
          <mxGeometry x="-800" y="740" width="120" height="60" as="geometry" />
        </mxCell>
        <mxCell id="dqapPqwXwCKbUHnhum-Q-46" value="B" style="whiteSpace=wrap;html=1;" vertex="1" parent="1">
          <mxGeometry x="-570" y="740" width="120" height="60" as="geometry" />
        </mxCell>
      </root>
    </mxGraphModel>
  </diagram>
</mxfile>
